<mxfile host="app.diagrams.net" modified="2024-02-06T17:58:12.077Z" agent="Mozilla/5.0 (Windows NT 10.0; Win64; x64) AppleWebKit/537.36 (KHTML, like Gecko) Chrome/121.0.0.0 Safari/537.36" etag="HX-v_ovDOnsfplNOd1YU" version="23.1.1" type="device">
  <diagram id="liHaLbsDdDWoMdjw3Daw" name="Page-1">
    <mxGraphModel dx="794" dy="420" grid="1" gridSize="10" guides="1" tooltips="1" connect="1" arrows="1" fold="1" page="1" pageScale="1" pageWidth="850" pageHeight="1100" math="0" shadow="0">
      <root>
        <mxCell id="0" />
        <mxCell id="1" parent="0" />
        <mxCell id="t9vM726DZgF4ImY6lTDz-1" value="Customer" style="shape=umlActor;verticalLabelPosition=bottom;verticalAlign=top;html=1;outlineConnect=0;" parent="1" vertex="1">
          <mxGeometry x="200" y="180" width="30" height="60" as="geometry" />
        </mxCell>
        <mxCell id="t9vM726DZgF4ImY6lTDz-9" value="" style="rounded=1;whiteSpace=wrap;html=1;labelPosition=right;verticalLabelPosition=middle;align=left;verticalAlign=middle;direction=west;" parent="1" vertex="1">
          <mxGeometry x="450" y="135" width="230" height="150" as="geometry" />
        </mxCell>
        <mxCell id="t9vM726DZgF4ImY6lTDz-18" value="" style="endArrow=classic;html=1;rounded=0;exitX=0.5;exitY=0.5;exitDx=0;exitDy=0;exitPerimeter=0;movable=1;resizable=1;rotatable=1;deletable=1;editable=1;connectable=1;entryX=1;entryY=0.5;entryDx=0;entryDy=0;" parent="1" source="t9vM726DZgF4ImY6lTDz-1" target="t9vM726DZgF4ImY6lTDz-9" edge="1">
          <mxGeometry width="50" height="50" relative="1" as="geometry">
            <mxPoint x="380" y="250" as="sourcePoint" />
            <mxPoint x="350" y="210" as="targetPoint" />
          </mxGeometry>
        </mxCell>
        <mxCell id="t9vM726DZgF4ImY6lTDz-19" value="&lt;h1 style=&quot;text-align: center;&quot;&gt;Event Planner&lt;/h1&gt;&lt;p style=&quot;text-align: center;&quot;&gt;(Software System)&lt;/p&gt;&lt;p style=&quot;text-align: justify;&quot;&gt;Allows customers to create an account. After this step, they can add and delete events.&lt;/p&gt;" style="text;html=1;strokeColor=none;fillColor=none;spacing=5;spacingTop=-20;whiteSpace=wrap;overflow=hidden;rounded=0;" parent="1" vertex="1">
          <mxGeometry x="480" y="150" width="170" height="120" as="geometry" />
        </mxCell>
        <mxCell id="t9vM726DZgF4ImY6lTDz-20" value="Plans certain events using" style="text;html=1;strokeColor=none;fillColor=none;align=center;verticalAlign=middle;whiteSpace=wrap;rounded=0;fontSize=14;" parent="1" vertex="1">
          <mxGeometry x="250" y="160" width="180" height="70" as="geometry" />
        </mxCell>
      </root>
    </mxGraphModel>
  </diagram>
</mxfile>
